<mxfile host="app.diagrams.net" modified="2023-12-24T21:29:56.070Z" agent="Mozilla/5.0 (X11; Ubuntu; Linux x86_64; rv:121.0) Gecko/20100101 Firefox/121.0" etag="Csh4CdtX73CscdMQ5mmt" version="22.1.11" type="device">
  <diagram id="4JDMdlQKLtHHJvqLDzob" name="Политика архитектуры v0.00">
    <mxGraphModel dx="2200" dy="613" grid="1" gridSize="10" guides="1" tooltips="1" connect="1" arrows="1" fold="1" page="1" pageScale="1" pageWidth="1100" pageHeight="850" math="0" shadow="0">
      <root>
        <mxCell id="0" />
        <mxCell id="1" parent="0" />
        <mxCell id="BJAZv3u8ANy0TdQOKaAf-12" value="3. Центральная система управления" style="rounded=0;whiteSpace=wrap;html=1;verticalAlign=bottom;align=left;" vertex="1" parent="1">
          <mxGeometry x="144.5" y="169" width="340" height="270" as="geometry" />
        </mxCell>
        <mxCell id="RpfdrgC46bGrJUgdeSrm-2" value="" style="group" parent="1" vertex="1" connectable="0">
          <mxGeometry x="810" y="120" width="250" height="293" as="geometry" />
        </mxCell>
        <mxCell id="RpfdrgC46bGrJUgdeSrm-3" value="&lt;h1&gt;Легенда&lt;/h1&gt;&lt;p&gt;недоверенная сущность&lt;/p&gt;&lt;p&gt;&lt;br&gt;&lt;/p&gt;&lt;p&gt;доверенная сущность&lt;/p&gt;&lt;p&gt;&lt;br&gt;&lt;/p&gt;&lt;p&gt;доверенная сущность, повышающая целостность данных&lt;br&gt;&lt;br&gt;&lt;/p&gt;&lt;p&gt;высокоцелостные данные&lt;/p&gt;&lt;p&gt;&lt;br&gt;&lt;/p&gt;&lt;p&gt;низкоцелостные данные&lt;/p&gt;" style="text;html=1;strokeColor=none;fillColor=none;spacing=5;spacingTop=-20;whiteSpace=wrap;overflow=hidden;rounded=0;" parent="RpfdrgC46bGrJUgdeSrm-2" vertex="1">
          <mxGeometry x="50" width="200" height="293" as="geometry" />
        </mxCell>
        <mxCell id="RpfdrgC46bGrJUgdeSrm-4" value="" style="rounded=1;whiteSpace=wrap;html=1;strokeColor=#FF0000;fillColor=#FFFFFF;" parent="RpfdrgC46bGrJUgdeSrm-2" vertex="1">
          <mxGeometry y="50" width="40" height="20" as="geometry" />
        </mxCell>
        <mxCell id="RpfdrgC46bGrJUgdeSrm-5" value="" style="rounded=1;whiteSpace=wrap;html=1;strokeColor=#009900;" parent="RpfdrgC46bGrJUgdeSrm-2" vertex="1">
          <mxGeometry y="98" width="40" height="20" as="geometry" />
        </mxCell>
        <mxCell id="RpfdrgC46bGrJUgdeSrm-6" value="" style="rounded=1;whiteSpace=wrap;html=1;strokeColor=#FF8000;" parent="RpfdrgC46bGrJUgdeSrm-2" vertex="1">
          <mxGeometry y="160" width="40" height="20" as="geometry" />
        </mxCell>
        <mxCell id="RpfdrgC46bGrJUgdeSrm-7" value="" style="endArrow=classic;html=1;rounded=0;strokeColor=#009900;" parent="RpfdrgC46bGrJUgdeSrm-2" edge="1">
          <mxGeometry width="50" height="50" relative="1" as="geometry">
            <mxPoint x="3" y="234" as="sourcePoint" />
            <mxPoint x="43" y="234" as="targetPoint" />
          </mxGeometry>
        </mxCell>
        <mxCell id="RpfdrgC46bGrJUgdeSrm-8" value="" style="endArrow=classic;html=1;rounded=0;strokeColor=#FF0000;" parent="RpfdrgC46bGrJUgdeSrm-2" edge="1">
          <mxGeometry width="50" height="50" relative="1" as="geometry">
            <mxPoint x="5" y="283" as="sourcePoint" />
            <mxPoint x="44" y="283" as="targetPoint" />
          </mxGeometry>
        </mxCell>
        <mxCell id="RpfdrgC46bGrJUgdeSrm-9" value="" style="group" parent="1" vertex="1" connectable="0">
          <mxGeometry x="810" y="480" width="280" height="160" as="geometry" />
        </mxCell>
        <mxCell id="RpfdrgC46bGrJUgdeSrm-10" value="&lt;h1&gt;&lt;font style=&quot;font-size: 14px;&quot;&gt;Качественные оценки доменов&amp;nbsp;&lt;/font&gt;&lt;/h1&gt;&lt;p&gt;Сложность - S (simple), M(medium), C (complex) - простой, средней сложности, сложный&lt;/p&gt;&lt;p&gt;Размер (объём) кода - S, M, L, XL - маленький, среднего размера, большой, очень большой&lt;/p&gt;&lt;p&gt;&lt;span style=&quot;background-color: initial;&quot;&gt;&amp;nbsp; &amp;nbsp;&amp;nbsp; &amp;nbsp; &amp;nbsp;- сложный и очень большой (Complex eXtra Large)&lt;/span&gt;&lt;br&gt;&lt;/p&gt;" style="text;html=1;strokeColor=none;fillColor=none;spacing=5;spacingTop=-20;whiteSpace=wrap;overflow=hidden;rounded=0;fontSize=10;" parent="RpfdrgC46bGrJUgdeSrm-9" vertex="1">
          <mxGeometry width="280" height="160" as="geometry" />
        </mxCell>
        <mxCell id="RpfdrgC46bGrJUgdeSrm-11" value="CXL" style="ellipse;whiteSpace=wrap;html=1;aspect=fixed;strokeColor=#000000;fontSize=10;fillColor=#FFFFFF;" parent="RpfdrgC46bGrJUgdeSrm-9" vertex="1">
          <mxGeometry x="3" y="105" width="20" height="20" as="geometry" />
        </mxCell>
        <mxCell id="czWyylls0Mwf-M6tfecd-1" value="5. Приводы" style="rounded=1;whiteSpace=wrap;html=1;strokeColor=#00FF00;" parent="1" vertex="1">
          <mxGeometry x="334.5" y="570" width="120" height="60" as="geometry" />
        </mxCell>
        <mxCell id="czWyylls0Mwf-M6tfecd-3" value="4. Навигация" style="rounded=1;whiteSpace=wrap;html=1;strokeColor=#FF9900;" parent="1" vertex="1">
          <mxGeometry x="533" y="339" width="120" height="60" as="geometry" />
        </mxCell>
        <mxCell id="czWyylls0Mwf-M6tfecd-4" style="edgeStyle=orthogonalEdgeStyle;rounded=0;orthogonalLoop=1;jettySize=auto;html=1;strokeColor=#FF0000;entryX=0;entryY=0.25;entryDx=0;entryDy=0;startArrow=classic;startFill=1;" parent="1" source="czWyylls0Mwf-M6tfecd-6" target="czWyylls0Mwf-M6tfecd-8" edge="1">
          <mxGeometry relative="1" as="geometry">
            <mxPoint x="165.5" y="239" as="targetPoint" />
          </mxGeometry>
        </mxCell>
        <mxCell id="czWyylls0Mwf-M6tfecd-6" value="2.Сбор и анализ данных" style="rounded=1;whiteSpace=wrap;html=1;strokeColor=#FF0000;" parent="1" vertex="1">
          <mxGeometry x="-25.5" y="209" width="120" height="60" as="geometry" />
        </mxCell>
        <mxCell id="BJAZv3u8ANy0TdQOKaAf-27" value="" style="edgeStyle=orthogonalEdgeStyle;rounded=0;orthogonalLoop=1;jettySize=auto;html=1;strokeColor=#FF0000;" edge="1" parent="1" source="czWyylls0Mwf-M6tfecd-7" target="BJAZv3u8ANy0TdQOKaAf-1">
          <mxGeometry relative="1" as="geometry" />
        </mxCell>
        <mxCell id="czWyylls0Mwf-M6tfecd-7" value="1. Связь" style="rounded=1;whiteSpace=wrap;html=1;strokeColor=#FF0000;" parent="1" vertex="1">
          <mxGeometry x="339.5" y="70" width="120" height="60" as="geometry" />
        </mxCell>
        <mxCell id="czWyylls0Mwf-M6tfecd-8" value="12. Модуль управления нейтрализатором" style="rounded=1;whiteSpace=wrap;html=1;strokeColor=#FF0000;" parent="1" vertex="1">
          <mxGeometry x="165.5" y="279" width="120" height="60" as="geometry" />
        </mxCell>
        <mxCell id="czWyylls0Mwf-M6tfecd-9" value="6.&amp;nbsp;Полётный контроллер" style="rounded=1;whiteSpace=wrap;html=1;strokeColor=#00FF00;" parent="1" vertex="1">
          <mxGeometry x="339.5" y="470" width="120" height="60" as="geometry" />
        </mxCell>
        <mxCell id="BJAZv3u8ANy0TdQOKaAf-15" style="edgeStyle=orthogonalEdgeStyle;rounded=0;orthogonalLoop=1;jettySize=auto;html=1;exitX=1;exitY=0.5;exitDx=0;exitDy=0;startArrow=classic;startFill=1;strokeColor=#FF0000;entryX=0;entryY=0.75;entryDx=0;entryDy=0;" edge="1" parent="1" source="czWyylls0Mwf-M6tfecd-10" target="czWyylls0Mwf-M6tfecd-8">
          <mxGeometry relative="1" as="geometry">
            <mxPoint x="160" y="370" as="targetPoint" />
          </mxGeometry>
        </mxCell>
        <mxCell id="czWyylls0Mwf-M6tfecd-10" value="5. Нейтрализатор" style="rounded=1;whiteSpace=wrap;html=1;strokeColor=#FF0000;" parent="1" vertex="1">
          <mxGeometry x="-25.5" y="339" width="120" height="60" as="geometry" />
        </mxCell>
        <mxCell id="czWyylls0Mwf-M6tfecd-12" value="9. Контроль батареи" style="rounded=1;whiteSpace=wrap;html=1;strokeColor=#00FF00;" parent="1" vertex="1">
          <mxGeometry x="533.5" y="470" width="120" height="60" as="geometry" />
        </mxCell>
        <mxCell id="czWyylls0Mwf-M6tfecd-13" value="8. Приводы" style="rounded=1;whiteSpace=wrap;html=1;strokeColor=#00FF00;" parent="1" vertex="1">
          <mxGeometry x="344.5" y="580" width="120" height="60" as="geometry" />
        </mxCell>
        <mxCell id="czWyylls0Mwf-M6tfecd-16" value="" style="endArrow=classic;startArrow=classic;html=1;rounded=0;exitX=0.457;exitY=0.019;exitDx=0;exitDy=0;exitPerimeter=0;strokeColor=#00FF00;" parent="1" source="czWyylls0Mwf-M6tfecd-13" edge="1">
          <mxGeometry width="50" height="50" relative="1" as="geometry">
            <mxPoint x="399.26" y="591" as="sourcePoint" />
            <mxPoint x="399.26" y="531" as="targetPoint" />
          </mxGeometry>
        </mxCell>
        <mxCell id="BJAZv3u8ANy0TdQOKaAf-17" style="edgeStyle=orthogonalEdgeStyle;rounded=0;orthogonalLoop=1;jettySize=auto;html=1;entryX=1;entryY=0.5;entryDx=0;entryDy=0;strokeColor=#FF0000;" edge="1" parent="1" source="czWyylls0Mwf-M6tfecd-17" target="czWyylls0Mwf-M6tfecd-7">
          <mxGeometry relative="1" as="geometry" />
        </mxCell>
        <mxCell id="czWyylls0Mwf-M6tfecd-17" value="7. Самодиагностика и мониторинг" style="rounded=1;whiteSpace=wrap;html=1;strokeColor=#FF0000;" parent="1" vertex="1">
          <mxGeometry x="533.5" y="70" width="120" height="60" as="geometry" />
        </mxCell>
        <mxCell id="czWyylls0Mwf-M6tfecd-20" style="edgeStyle=orthogonalEdgeStyle;rounded=0;orthogonalLoop=1;jettySize=auto;html=1;entryX=1;entryY=0.417;entryDx=0;entryDy=0;entryPerimeter=0;strokeColor=#FF0000;" parent="1" target="czWyylls0Mwf-M6tfecd-3" edge="1">
          <mxGeometry relative="1" as="geometry">
            <mxPoint x="693.5" y="364" as="sourcePoint" />
          </mxGeometry>
        </mxCell>
        <mxCell id="czWyylls0Mwf-M6tfecd-21" value="" style="fontColor=#0066CC;verticalAlign=top;verticalLabelPosition=bottom;labelPosition=center;align=center;html=1;outlineConnect=0;fillColor=#CCCCCC;strokeColor=#FF0000;gradientColor=none;gradientDirection=north;strokeWidth=2;shape=mxgraph.networks.satellite;" parent="1" vertex="1">
          <mxGeometry x="704" y="339" width="60" height="50" as="geometry" />
        </mxCell>
        <mxCell id="czWyylls0Mwf-M6tfecd-23" value="" style="endArrow=classic;html=1;rounded=0;entryX=0;entryY=0.5;entryDx=0;entryDy=0;strokeColor=#FF0000;" parent="1" target="czWyylls0Mwf-M6tfecd-6" edge="1">
          <mxGeometry width="50" height="50" relative="1" as="geometry">
            <mxPoint x="-61" y="239" as="sourcePoint" />
            <mxPoint x="-211" y="139" as="targetPoint" />
          </mxGeometry>
        </mxCell>
        <mxCell id="nfuGDHEsqw4dD-PpUVuW-1" value="" style="endArrow=classic;html=1;rounded=0;strokeColor=#FF0000;" parent="1" edge="1">
          <mxGeometry width="50" height="50" relative="1" as="geometry">
            <mxPoint x="419.5" y="70" as="sourcePoint" />
            <mxPoint x="419.5" y="20" as="targetPoint" />
          </mxGeometry>
        </mxCell>
        <mxCell id="nfuGDHEsqw4dD-PpUVuW-2" value="" style="endArrow=classic;html=1;rounded=0;strokeColor=#FF0000;" parent="1" edge="1">
          <mxGeometry width="50" height="50" relative="1" as="geometry">
            <mxPoint x="379.5" y="20" as="sourcePoint" />
            <mxPoint x="379.5" y="70" as="targetPoint" />
          </mxGeometry>
        </mxCell>
        <mxCell id="nfuGDHEsqw4dD-PpUVuW-5" value="CL" style="ellipse;whiteSpace=wrap;html=1;aspect=fixed;strokeColor=#FF0000;fontSize=10;fillColor=#FFFFFF;" parent="1" vertex="1">
          <mxGeometry x="439.5" y="60" width="30" height="30" as="geometry" />
        </mxCell>
        <mxCell id="nfuGDHEsqw4dD-PpUVuW-6" value="SM" style="ellipse;whiteSpace=wrap;html=1;aspect=fixed;strokeColor=#FF0000;fontSize=10;fillColor=#FFFFFF;" parent="1" vertex="1">
          <mxGeometry x="269.5" y="263" width="30" height="30" as="geometry" />
        </mxCell>
        <mxCell id="nfuGDHEsqw4dD-PpUVuW-7" value="ML" style="ellipse;whiteSpace=wrap;html=1;aspect=fixed;strokeColor=#FF0000;fontSize=10;fillColor=#FFFFFF;" parent="1" vertex="1">
          <mxGeometry x="75.5" y="195" width="30" height="30" as="geometry" />
        </mxCell>
        <mxCell id="nfuGDHEsqw4dD-PpUVuW-8" value="SS" style="ellipse;whiteSpace=wrap;html=1;aspect=fixed;strokeColor=#FF0000;fontSize=10;fillColor=#FFFFFF;" parent="1" vertex="1">
          <mxGeometry x="76.5" y="323" width="31" height="31" as="geometry" />
        </mxCell>
        <mxCell id="nfuGDHEsqw4dD-PpUVuW-9" value="ML" style="ellipse;whiteSpace=wrap;html=1;aspect=fixed;strokeColor=#00FF00;fontSize=10;fillColor=#FFFFFF;" parent="1" vertex="1">
          <mxGeometry x="439.5" y="460" width="30" height="30" as="geometry" />
        </mxCell>
        <mxCell id="nfuGDHEsqw4dD-PpUVuW-10" value="SS" style="ellipse;whiteSpace=wrap;html=1;aspect=fixed;strokeColor=#FF9900;fontSize=10;fillColor=#FFFFFF;" parent="1" vertex="1">
          <mxGeometry x="633" y="329" width="30" height="30" as="geometry" />
        </mxCell>
        <mxCell id="nfuGDHEsqw4dD-PpUVuW-11" value="SM" style="ellipse;whiteSpace=wrap;html=1;aspect=fixed;strokeColor=#FF0000;fontSize=10;fillColor=#FFFFFF;" parent="1" vertex="1">
          <mxGeometry x="633.5" y="50" width="30" height="30" as="geometry" />
        </mxCell>
        <mxCell id="nfuGDHEsqw4dD-PpUVuW-13" value="SS" style="ellipse;whiteSpace=wrap;html=1;aspect=fixed;strokeColor=#00FF00;fontSize=10;fillColor=#FFFFFF;" parent="1" vertex="1">
          <mxGeometry x="633.5" y="455" width="30" height="30" as="geometry" />
        </mxCell>
        <mxCell id="BJAZv3u8ANy0TdQOKaAf-16" style="edgeStyle=orthogonalEdgeStyle;rounded=0;orthogonalLoop=1;jettySize=auto;html=1;strokeColor=#00FF00;entryX=0.5;entryY=0;entryDx=0;entryDy=0;exitX=0.5;exitY=1;exitDx=0;exitDy=0;" edge="1" parent="1" source="BJAZv3u8ANy0TdQOKaAf-1" target="BJAZv3u8ANy0TdQOKaAf-9">
          <mxGeometry relative="1" as="geometry">
            <mxPoint x="620" y="180" as="targetPoint" />
          </mxGeometry>
        </mxCell>
        <mxCell id="BJAZv3u8ANy0TdQOKaAf-1" value="10. Модуль ЭЦП" style="rounded=1;whiteSpace=wrap;html=1;strokeColor=#FF9900;" vertex="1" parent="1">
          <mxGeometry x="339.5" y="209" width="120" height="60" as="geometry" />
        </mxCell>
        <mxCell id="BJAZv3u8ANy0TdQOKaAf-2" value="SS" style="ellipse;whiteSpace=wrap;html=1;aspect=fixed;strokeColor=#FF9900;fontSize=10;fillColor=#FFFFFF;" vertex="1" parent="1">
          <mxGeometry x="439.5" y="195" width="30" height="30" as="geometry" />
        </mxCell>
        <mxCell id="BJAZv3u8ANy0TdQOKaAf-24" style="edgeStyle=orthogonalEdgeStyle;rounded=0;orthogonalLoop=1;jettySize=auto;html=1;entryX=0.5;entryY=0;entryDx=0;entryDy=0;startArrow=classic;startFill=1;strokeColor=#00FF00;exitX=0.5;exitY=1;exitDx=0;exitDy=0;" edge="1" parent="1" source="BJAZv3u8ANy0TdQOKaAf-9" target="czWyylls0Mwf-M6tfecd-9">
          <mxGeometry relative="1" as="geometry">
            <mxPoint x="585.5" y="470" as="sourcePoint" />
          </mxGeometry>
        </mxCell>
        <mxCell id="BJAZv3u8ANy0TdQOKaAf-26" style="edgeStyle=orthogonalEdgeStyle;rounded=0;orthogonalLoop=1;jettySize=auto;html=1;strokeColor=#00FF00;exitX=0.75;exitY=0;exitDx=0;exitDy=0;entryX=0.25;entryY=1;entryDx=0;entryDy=0;" edge="1" parent="1" source="BJAZv3u8ANy0TdQOKaAf-9" target="czWyylls0Mwf-M6tfecd-17">
          <mxGeometry relative="1" as="geometry">
            <mxPoint x="560" y="190" as="targetPoint" />
            <Array as="points">
              <mxPoint x="430" y="300" />
              <mxPoint x="564" y="300" />
              <mxPoint x="564" y="130" />
            </Array>
          </mxGeometry>
        </mxCell>
        <mxCell id="BJAZv3u8ANy0TdQOKaAf-36" value="" style="edgeStyle=orthogonalEdgeStyle;rounded=0;orthogonalLoop=1;jettySize=auto;html=1;exitX=0;exitY=0.75;exitDx=0;exitDy=0;strokeColor=#00FF00;" edge="1" parent="1" source="BJAZv3u8ANy0TdQOKaAf-9" target="czWyylls0Mwf-M6tfecd-8">
          <mxGeometry relative="1" as="geometry">
            <Array as="points">
              <mxPoint x="225" y="384" />
            </Array>
          </mxGeometry>
        </mxCell>
        <mxCell id="BJAZv3u8ANy0TdQOKaAf-37" value="" style="edgeStyle=orthogonalEdgeStyle;rounded=0;orthogonalLoop=1;jettySize=auto;html=1;startArrow=classic;startFill=1;endArrow=none;endFill=0;strokeColor=#FF0000;" edge="1" parent="1" source="BJAZv3u8ANy0TdQOKaAf-9" target="czWyylls0Mwf-M6tfecd-8">
          <mxGeometry relative="1" as="geometry">
            <Array as="points">
              <mxPoint x="310" y="369" />
              <mxPoint x="310" y="309" />
            </Array>
          </mxGeometry>
        </mxCell>
        <mxCell id="BJAZv3u8ANy0TdQOKaAf-9" value="11. Модуль рассчета маршрута" style="rounded=1;whiteSpace=wrap;html=1;strokeColor=#FF9900;" vertex="1" parent="1">
          <mxGeometry x="339.5" y="339" width="120" height="60" as="geometry" />
        </mxCell>
        <mxCell id="BJAZv3u8ANy0TdQOKaAf-10" value="SM" style="ellipse;whiteSpace=wrap;html=1;aspect=fixed;strokeColor=#FF9900;fontSize=10;fillColor=#FFFFFF;" vertex="1" parent="1">
          <mxGeometry x="442.5" y="323" width="30" height="30" as="geometry" />
        </mxCell>
        <mxCell id="BJAZv3u8ANy0TdQOKaAf-21" style="edgeStyle=orthogonalEdgeStyle;rounded=0;orthogonalLoop=1;jettySize=auto;html=1;exitX=0;exitY=0.5;exitDx=0;exitDy=0;entryX=1;entryY=0.5;entryDx=0;entryDy=0;strokeColor=#00FF00;" edge="1" parent="1" source="czWyylls0Mwf-M6tfecd-3" target="BJAZv3u8ANy0TdQOKaAf-9">
          <mxGeometry relative="1" as="geometry">
            <mxPoint x="469.5" y="254.04999999999995" as="targetPoint" />
          </mxGeometry>
        </mxCell>
        <mxCell id="BJAZv3u8ANy0TdQOKaAf-22" style="edgeStyle=orthogonalEdgeStyle;rounded=0;orthogonalLoop=1;jettySize=auto;html=1;strokeColor=#00FF00;entryX=0.84;entryY=0.852;entryDx=0;entryDy=0;entryPerimeter=0;exitX=0.5;exitY=0;exitDx=0;exitDy=0;" edge="1" parent="1" source="czWyylls0Mwf-M6tfecd-12" target="BJAZv3u8ANy0TdQOKaAf-12">
          <mxGeometry relative="1" as="geometry">
            <mxPoint x="570" y="420" as="targetPoint" />
            <Array as="points">
              <mxPoint x="594" y="420" />
              <mxPoint x="430" y="420" />
            </Array>
          </mxGeometry>
        </mxCell>
        <mxCell id="BJAZv3u8ANy0TdQOKaAf-25" value="SS" style="ellipse;whiteSpace=wrap;html=1;aspect=fixed;strokeColor=#00FF00;fontSize=10;fillColor=#FFFFFF;" vertex="1" parent="1">
          <mxGeometry x="445.5" y="570" width="30" height="30" as="geometry" />
        </mxCell>
      </root>
    </mxGraphModel>
  </diagram>
</mxfile>
